<svg xmlns="http://www.w3.org/2000/svg" width="16" height="16" viewBox="0 0 16 16"><path d="M14.63 2.38V1.5h-1.25v.88h-.88v1.25h.88v.87h1.25v-.87h.87V2.38h-.87zm-2.1 2.96a5.79 5.79 0 00-2.39.6L10 6a.3.3 0 01-.3-.3V2.75A1.25 1.25 0 008.47 1.5H1.75A1.25 1.25 0 00.5 2.75v3A1.51 1.51 0 002 7.29a1.46 1.46 0 00.6-.14 4.44 4.44 0 012-.57A1.52 1.52 0 016.2 8a1.52 1.52 0 01-1.6 1.42 4.44 4.44 0 01-2-.57 1.46 1.46 0 00-.6-.14 1.51 1.51 0 00-1.5 1.51v3a1.25 1.25 0 001.25 1.28h6.72a1.25 1.25 0 001.25-1.25v-2.92A.3.3 0 0110 10a.27.27 0 01.12 0 5.79 5.79 0 002.39.6 2.67 2.67 0 100-5.32zM13.78 9a1.68 1.68 0 01-1.25.45 4.61 4.61 0 01-1.87-.49 1.57 1.57 0 00-.66-.18 1.55 1.55 0 00-1.55 1.55v2.92h-6.7v-3A.26.26 0 012 10h.09l.21.09a5 5 0 002.3.59A2.77 2.77 0 007.45 8 2.77 2.77 0 004.6 5.33a5 5 0 00-2.3.59L2.09 6A.16.16 0 012 6a.26.26 0 01-.25-.26v-3h6.72v2.93A1.55 1.55 0 0010 7.22a1.57 1.57 0 00.64-.14 4.61 4.61 0 011.87-.49 1.68 1.68 0 011.27.41 1.38 1.38 0 010 1.92z"/></svg>