<svg xmlns="http://www.w3.org/2000/svg" width="16" height="16" viewBox="0 0 16 16"><path d="M.63 11.08zm.21.41v-.1zm.23.38L1 11.68zM1 11.68l-.11-.19zm-.21-.29c-.06-.1-.11-.21-.16-.31.05.1.1.21.16.31zm.32.54v-.06z"/><path d="M11.26 12.63l1.83 1.09a7.34 7.34 0 001-.94 7.48 7.48 0 001.56-2.86l-1.74-1A5.29 5.29 0 0014 8a5.29 5.29 0 00-.08-.9l1.74-1a7.45 7.45 0 00-1.33-2.58 7.54 7.54 0 00-1.24-1.22l-1.83 1.04a6 6 0 00-1.11-.53v-2A8.55 8.55 0 007.94.53a8.39 8.39 0 00-2.26.3v2a7.23 7.23 0 00-1.12.54L2.78 2.28A7.46 7.46 0 00.2 6.06l1.72 1a5.29 5.29 0 00-.08.9 5.29 5.29 0 00.08.9l-1.73 1a8 8 0 00.43 1.15c.05.1.1.21.16.31v.1l.11.19.12.19v.06a7.69 7.69 0 001.64 1.78l1.81-1.08a7.23 7.23 0 001.12.54v2a8.39 8.39 0 002.26.31 8.56 8.56 0 002.22-.3v-2a6 6 0 001.2-.48zm-2.39 1.52a7.57 7.57 0 01-.95.06 7.73 7.73 0 01-1-.06v-1.69a4.92 4.92 0 01-2.53-1.27l-1.54.92a6.22 6.22 0 01-1.08-1.61l1.56-.93a4.27 4.27 0 010-3.17l-1.56-.92a6.11 6.11 0 011.12-1.62l1.56.93A5 5 0 017 3.53V1.82a7.73 7.73 0 011-.06 7.57 7.57 0 01.95.06v1.72a4.9 4.9 0 012.4 1.26l1.59-.94a6.31 6.31 0 011.11 1.62l-1.6.94a4.35 4.35 0 01.3 1.58 4.44 4.44 0 01-.29 1.55l1.56.93a6.43 6.43 0 01-1.11 1.61l-1.58-.93a5 5 0 01-2.49 1.28z"/><path d="M7.92 5.49A2.59 2.59 0 005.25 8a2.59 2.59 0 002.67 2.51A2.6 2.6 0 0010.6 8a2.6 2.6 0 00-2.68-2.51zM8 9.2A1.35 1.35 0 016.55 8 1.35 1.35 0 018 6.7 1.35 1.35 0 019.39 8 1.35 1.35 0 018 9.2z"/></svg>