<svg xmlns="http://www.w3.org/2000/svg" width="16" height="16" viewBox="0 0 16 16"><path d="M10.09 4.37a.62.62 0 00-.85.23l-3.57 6.18a.62.62 0 00.23.85.55.55 0 00.31.08.63.63 0 00.54-.31l3.57-6.18a.61.61 0 00-.23-.85zM7.35 6.43a2.16 2.16 0 00-2.06-2.24 2.17 2.17 0 00-2.07 2.24 2.17 2.17 0 002.07 2.25 2.16 2.16 0 002.06-2.25zm-2.06 1a.93.93 0 01-.82-1 .92.92 0 01.82-1 .91.91 0 01.81 1 .92.92 0 01-.81 1zm5.42-.11a2.16 2.16 0 00-2.06 2.24 2.16 2.16 0 002.06 2.25 2.17 2.17 0 002.07-2.25 2.17 2.17 0 00-2.07-2.24zm0 3.24a.92.92 0 01-.81-1 .92.92 0 01.81-1 .92.92 0 01.82 1 .93.93 0 01-.82 1z"/><path d="M8 .5A7.76 7.76 0 000 8a7.76 7.76 0 008 7.5A7.76 7.76 0 0016 8 7.76 7.76 0 008 .5zm0 13.75A6.52 6.52 0 011.25 8 6.52 6.52 0 018 1.75 6.52 6.52 0 0114.75 8 6.52 6.52 0 018 14.25z"/></svg>