<svg xmlns="http://www.w3.org/2000/svg" width="16" height="16" viewBox="0 0 16 16"><path d="M8 12.09a1.74 1.74 0 01-1.25-.49 1.1 1.1 0 01-.36-.8.63.63 0 00-.63-.63.62.62 0 00-.62.63 2.33 2.33 0 00.73 1.69 3 3 0 002.13.85.63.63 0 100-1.25z"/><path d="M9.25 1.25C9.06.23 8.43 0 8 0S6.94.23 6.75 1.25C6 5.2 2.5 7 2.5 10.82A5.35 5.35 0 008 16a5.35 5.35 0 005.5-5.18C13.5 7 10 5.2 9.25 1.25zM8 14.75a4.1 4.1 0 01-4.25-3.93c0-1.66.85-2.9 1.84-4.33A12.85 12.85 0 008 1.48v-.1.1a12.85 12.85 0 002.39 5c1 1.43 1.84 2.67 1.84 4.33A4.1 4.1 0 018 14.75z"/></svg>