<svg xmlns="http://www.w3.org/2000/svg" width="16" height="16" viewBox="0 0 16 16"><path d="M11.57 4.87a.62.62 0 00-.05.88c1 1.11 1.1 4.79.51 7.22a.63.63 0 00.46.76h.15a.63.63 0 00.61-.47c.6-2.48.65-6.75-.8-8.36a.63.63 0 00-.88-.03zM8 4.1a4.67 4.67 0 011.89.39.62.62 0 10.5-1.14A5.88 5.88 0 008 2.85C5 2.85 2.57 5 2.57 7.64a13.5 13.5 0 01-.49 4.65.62.62 0 00.34.81.52.52 0 00.24.05.63.63 0 00.58-.38 14.34 14.34 0 00.58-5.13C3.82 5.69 5.7 4.1 8 4.1z"/><path d="M13.6 2.44A8.27 8.27 0 008 .29a8.5 8.5 0 00-3.7.84A.62.62 0 004 2a.63.63 0 00.84.29A7.38 7.38 0 018 1.54c3.65 0 6.73 2.79 6.73 6.1a.63.63 0 00.63.62.62.62 0 00.64-.62 7 7 0 00-2.4-5.2zM2.16 3.54a.64.64 0 00-.87.16A7.05 7.05 0 000 7.63a.63.63 0 00.62.63.62.62 0 00.62-.62 5.74 5.74 0 011.08-3.23.62.62 0 00-.16-.87zM8 5.41a2.9 2.9 0 00-2.2.8.61.61 0 000 .88.62.62 0 00.88 0A1.83 1.83 0 018 6.66a1.62 1.62 0 011.65 1.18c.33.93 0 4.93-.55 6.4a.63.63 0 00.38.8.78.78 0 00.21 0 .62.62 0 00.59-.42A18 18 0 0011 11a10.9 10.9 0 00-.12-3.53A2.87 2.87 0 008 5.41zM5.68 8.34a.62.62 0 00-.57.66 11.09 11.09 0 01-.79 4.65.62.62 0 00.18.86.6.6 0 00.34.11.61.61 0 00.52-.29 11.93 11.93 0 001-5.43.62.62 0 00-.68-.56z"/><path d="M7.9 7.66a.63.63 0 00-.52.72 15.66 15.66 0 01-.78 5.95.63.63 0 00.29.84.63.63 0 00.83-.29 16.6 16.6 0 00.9-6.71.62.62 0 00-.72-.51z"/></svg>