<svg width="16" height="16" viewBox="0 0 16 16" fill="none" xmlns="http://www.w3.org/2000/svg"><path fill-rule="evenodd" clip-rule="evenodd" d="M12.2313 3.15657C11.8986 3.61621 11.4528 4.00627 10.9275 4.29737C11.4528 4.58847 11.8986 4.97852 12.2313 5.43817C12.564 4.97852 13.0098 4.58847 13.5352 4.29737C13.0098 4.00627 12.564 3.61621 12.2313 3.15657ZM11.4985 1.54461C11.6348 0.818462 12.8279 0.818462 12.9641 1.54461L12.972 1.58709C13.1673 2.64687 14.1177 3.47842 15.329 3.6493L15.33 3.64944L15.3775 3.65621C16.2075 3.77543 16.2075 4.8193 15.3775 4.93852L15.329 4.94544C14.1177 5.11632 13.1673 5.94787 12.972 7.00765L12.9641 7.05012C12.8279 7.77628 11.6348 7.77628 11.4985 7.05012L11.4906 7.00765C11.2953 5.94787 10.3449 5.11632 9.13365 4.94544L9.0851 4.93852C8.25516 4.8193 8.25516 3.77543 9.0851 3.65621L9.13365 3.6493C10.3449 3.47842 11.2953 2.64687 11.4906 1.58709L11.4985 1.54461ZM5.34622 5.27327L5.4644 4.63102L5.46475 4.62915C5.61409 3.83382 6.92088 3.83382 7.07022 4.62915L7.07056 4.63102L7.18875 5.27327C7.51419 7.03985 9.09783 8.42547 11.1169 8.71026C11.1169 8.71026 11.1169 8.71025 11.1169 8.71026L11.8511 8.81368L11.8532 8.81398C12.7622 8.94464 12.7622 10.088 11.8532 10.2187L11.8511 10.219L11.117 10.3224C11.117 10.3224 11.1171 10.3224 11.117 10.3224C9.09798 10.6072 7.51425 11.9927 7.18877 13.7593C7.18876 13.7593 7.18877 13.7592 7.18877 13.7593L7.07056 14.4016L7.07022 14.4035C6.92088 15.1988 5.61409 15.1988 5.46475 14.4035L5.4644 14.4016L5.34622 13.7594C5.34621 13.7593 5.34622 13.7594 5.34622 13.7594C5.02073 11.9928 3.4371 10.6072 1.41806 10.3224C1.41802 10.3224 1.4181 10.3224 1.41806 10.3224L0.683899 10.219L0.681761 10.2187C-0.227254 10.088 -0.227254 8.94464 0.681761 8.81398L0.683899 8.81368L1.41794 8.71027C1.41798 8.71027 1.4179 8.71028 1.41794 8.71027C3.43702 8.42548 5.02077 7.03985 5.34622 5.27327ZM6.26748 6.71895C5.65147 7.97385 4.50454 8.97735 3.07026 9.51632C4.50454 10.0553 5.65147 11.0588 6.26748 12.3137C6.88349 11.0588 8.03043 10.0553 9.4647 9.51632C8.03043 8.97735 6.88349 7.97385 6.26748 6.71895Z" fill="currentColor"/></svg>
