<svg xmlns="http://www.w3.org/2000/svg" width="16" height="16" viewBox="0 0 16 16"><path d="M2.5 11.25h2v1.25h-2z"/><path d="M14.75 4H13.3a2.1 2.1 0 00-1.87-3 4.24 4.24 0 00-2.84 1 3.42 3.42 0 00-.59.67A3.42 3.42 0 007.41 2a4.24 4.24 0 00-2.84-1A2.1 2.1 0 002.7 4H1.25A1.25 1.25 0 000 5.25v8.5A1.25 1.25 0 001.25 15h13.5A1.25 1.25 0 0016 13.75v-8.5A1.25 1.25 0 0014.75 4zM9.42 2.94a3 3 0 012-.69.85.85 0 010 1.7H8.74a2.32 2.32 0 01.68-1.01zm-4.85-.69a3 3 0 012 .69 2.32 2.32 0 01.68 1H4.57a.85.85 0 010-1.7zm-3.32 3h13.5V6.5H1.25V5.25zm0 8.5V9h13.5v4.75z"/></svg>