<svg xmlns="http://www.w3.org/2000/svg" width="16" height="16" viewBox="0 0 16 16"><path d="M14.37 2.56a3.92 3.92 0 00-3-1 4.1 4.1 0 00-1.82.52A9.18 9.18 0 008 3.06a9.35 9.35 0 00-1.49-1 3.85 3.85 0 00-1.77-.52A4.07 4.07 0 001.63 2.6 4 4 0 00.35 5.52a3.83 3.83 0 00.88 2.33 33.87 33.87 0 005.7 6.2l.39-.49-.38.49a1.67 1.67 0 001.06.42 1.71 1.71 0 001.08-.42 37.42 37.42 0 006.06-6.73 3.5 3.5 0 00.47-1.74 4 4 0 00-1.24-3.02zm-.26 4.06a37.1 37.1 0 01-5.81 6.46.56.56 0 01-.28.13.51.51 0 01-.29-.14 32.77 32.77 0 01-5.49-5.94 2.74 2.74 0 01-.64-1.61 2.75 2.75 0 01.88-2 2.79 2.79 0 012.16-.72h.1a2.73 2.73 0 011.19.38A10.23 10.23 0 017.24 4l.76.63.76-.63a9 9 0 011.34-.86 2.91 2.91 0 011.26-.39h.1a2.68 2.68 0 012.07.68 2.78 2.78 0 01.87 2 2.18 2.18 0 01-.29 1.19z"/></svg>