<svg xmlns="http://www.w3.org/2000/svg" width="16" height="16" viewBox="0 0 16 16"><path d="M8 .5A7.77 7.77 0 000 8a7.77 7.77 0 008 7.5A7.77 7.77 0 0016 8 7.77 7.77 0 008 .5zm5.38 3.73l-1.59 1.6A4.42 4.42 0 0010 4.3l1.6-1.58a6.5 6.5 0 011.78 1.51zM8 10.9A3.07 3.07 0 014.8 8 3.07 3.07 0 018 5.1 3.07 3.07 0 0111.2 8 3.07 3.07 0 018 10.9zm2.39-8.74L8.65 3.89H7.36L5.64 2.14A7.35 7.35 0 018 1.75a7 7 0 012.39.41zm-5.95.54L6 4.29a4.45 4.45 0 00-1.79 1.53l-1.6-1.58A6.5 6.5 0 014.44 2.7zM1.91 5.3L3.67 7a3.83 3.83 0 00-.12 1 4.32 4.32 0 00.1.88l-1.77 1.76a5.85 5.85 0 010-5.34zm.66 6.41l1.61-1.59A4.34 4.34 0 006 11.71L4.44 13.3a6.38 6.38 0 01-1.87-1.59zm3.07 2.15l1.72-1.75H8a5.52 5.52 0 00.71-.05l1.73 1.73a7.27 7.27 0 01-2.44.46 7.35 7.35 0 01-2.36-.39zm6-.6l-1.58-1.58a4.35 4.35 0 001.77-1.57l1.6 1.6a6.68 6.68 0 01-1.79 1.55zm2.48-2.63l-1.77-1.76a3.57 3.57 0 00.1-.87 3.75 3.75 0 00-.12-1l1.76-1.7a5.83 5.83 0 010 5.33z"/></svg>