<svg xmlns="http://www.w3.org/2000/svg" width="16" height="16" viewBox="0 0 16 16"><path d="M8 6.1a.31.31 0 00-.45.32 2.47 2.47 0 00.51 1.22l.15.13A3 3 0 019.08 10a3.63 3.63 0 01-3.55 3.44 3 3 0 01-2.11-.85 3 3 0 01-.85-2.22A3.55 3.55 0 013.63 8a3.66 3.66 0 011.5-.91A5.19 5.19 0 015 6v-.16a4.84 4.84 0 00-2.31 1.3 4.5 4.5 0 00-.2 6.37 4.16 4.16 0 003 1.22 4.79 4.79 0 003.38-1.42 4.52 4.52 0 00.21-6.38A4.16 4.16 0 008 6.1z"/><path d="M13.46 2.54a4.16 4.16 0 00-3-1.22 4.79 4.79 0 00-3.37 1.42 4.52 4.52 0 00-.21 6.38A4.21 4.21 0 008 9.9a.31.31 0 00.45-.31 2.41 2.41 0 00-.52-1.23l-.15-.13A3 3 0 016.92 6a3.63 3.63 0 013.55-3.44 3 3 0 012.11.85 3 3 0 01.85 2.22A3.55 3.55 0 0112.37 8a3.66 3.66 0 01-1.5.91 5.19 5.19 0 01.13 1.14v.16a4.84 4.84 0 002.31-1.3 4.5 4.5 0 00.15-6.37z"/></svg>