<svg xmlns="http://www.w3.org/2000/svg" width="16" height="16" viewBox="0 0 16 16"><path d="M12.32 8a3 3 0 00-2-.7H5.63A1.59 1.59 0 014 5.69a2 2 0 010-.25 1.59 1.59 0 011.63-1.33h4.62a1.59 1.59 0 011.57 1.33h1.5a3.08 3.08 0 00-3.07-2.83H8.67V.31H7.42v2.3H5.63a3.08 3.08 0 00-3.07 2.83 2.09 2.09 0 000 .25 3.07 3.07 0 003.07 3.07h4.74A1.59 1.59 0 0112 10.35a1.86 1.86 0 010 .34 1.59 1.59 0 01-1.55 1.24h-4.7a1.59 1.59 0 01-1.55-1.24H2.69a3.08 3.08 0 003.06 2.73h1.67v2.27h1.25v-2.27h1.7a3.08 3.08 0 003.06-2.73v-.34A3.06 3.06 0 0012.32 8z"/></svg>