<svg xmlns="http://www.w3.org/2000/svg" width="16" height="16" viewBox="0 0 16 16"><path d="M8 .52A7.77 7.77 0 000 8a7.77 7.77 0 008 7.48A7.77 7.77 0 0016 8 7.77 7.77 0 008 .52zm0 13.71A6.51 6.51 0 011.25 8 6.51 6.51 0 018 1.77 6.51 6.51 0 0114.75 8 6.51 6.51 0 018 14.23z"/><path d="M9 7.38H7A.34.34 0 016.69 7a.13.13 0 01.01 0 .34.34 0 01.3-.29h1.94a.34.34 0 01.33.29h1.25a1.59 1.59 0 00-1.58-1.54h-.32V4.21H7.37v1.25H7A1.59 1.59 0 005.44 7a1.55 1.55 0 00.35 1A1.59 1.59 0 007 8.62h2a.34.34 0 01.33.38.33.33 0 01-.33.29H7.08A.33.33 0 016.75 9H5.49a1.58 1.58 0 001.58 1.54h.31v1.25h1.24v-1.25H9A1.58 1.58 0 0010.56 9a1.51 1.51 0 00-.34-1A1.59 1.59 0 009 7.38z"/></svg>