<svg xmlns="http://www.w3.org/2000/svg" width="16" height="16" viewBox="0 0 16 16"><path d="M8 .5A7.76 7.76 0 000 8a7.76 7.76 0 008 7.5A7.76 7.76 0 0016 8 7.76 7.76 0 008 .5zm6.71 6.8L13.48 7c-.25-.07-.27-.09-.29-.12-.15-.2-.32-.47-.48-.73 0-.09-.13-.23-.16-.31s.35-.6.51-.84a2.43 2.43 0 01.59-.45 5.87 5.87 0 011.06 2.75zM8 1.75l-.09.17a.19.19 0 010-.1c0 .06-.15.15-.25.25l-.3.29a.85.85 0 00-.08 1.08h-.12a1.05 1.05 0 00-.81.42 1.27 1.27 0 00-.2 1.07V5a3 3 0 00-.43.11l-.24.08-.64.21a1.2 1.2 0 00-.81.8 1 1 0 00.2.93 5.67 5.67 0 001.38 1.09 4.17 4.17 0 001.67.65h1.68a1.2 1.2 0 011.04.51.49.49 0 01.13.43.77.77 0 01-.15.35 2.71 2.71 0 00-.95 1.61 11.11 11.11 0 01-.48 1.38c-.12.31-.23.61-.31.85a3.32 3.32 0 01-1-.08 3.28 3.28 0 00-.5-2.12 2.24 2.24 0 01-.53-1.42 2.11 2.11 0 00-1.47-2.29 10.81 10.81 0 01-2.9-2.64A6.79 6.79 0 018 1.75zM1.25 8a5.64 5.64 0 01.12-1.16 10.29 10.29 0 002.94 2.42c.6.22.69.45.69 1.12a3.45 3.45 0 00.86 2.27A3.05 3.05 0 016 14a6.35 6.35 0 01-4.75-6zm8.32 6.08c0-.15.12-.32.18-.48a10.2 10.2 0 00.55-1.6 1.55 1.55 0 01.54-.86 1.91 1.91 0 00.57-1.3 1.71 1.71 0 00-.47-1.27 2.45 2.45 0 00-2-.9H7.35a4.77 4.77 0 01-2-1.11l.47-.16.27-.08a.79.79 0 01.38-.07l.09.15a.64.64 0 00.81.29.65.65 0 00.34-.8v-.18c-.11-.3-.24-.72-.32-1A1.42 1.42 0 008.68 4a1 1 0 00-.18-1 3.44 3.44 0 00.33-.34 1 1 0 00.22-.8 6.93 6.93 0 013.73 1.8 3 3 0 00-.79.7 9.14 9.14 0 00-.64 1.09 1.46 1.46 0 00.24 1.39c.18.31.38.61.56.86a1.58 1.58 0 001 .58c.22.06 1 .22 1.55.33a6.44 6.44 0 01-5.13 5.47z"/></svg>