<svg xmlns="http://www.w3.org/2000/svg" width="16" height="16" viewBox="0 0 16 16"><path d="M8 .5A7.77 7.77 0 000 8a7.77 7.77 0 008 7.5A7.77 7.77 0 0016 8 7.77 7.77 0 008 .5zm0 13.75A6.52 6.52 0 011.25 8 6.52 6.52 0 018 1.75 6.52 6.52 0 0114.75 8 6.52 6.52 0 018 14.25z"/><circle cx="7.98" cy="10.95" r=".76"/><path d="M9.73 4.75A2.72 2.72 0 008 4.19a2.28 2.28 0 00-2.41 2.17v.11h1.24v-.1A1.12 1.12 0 018 5.33a1 1 0 011.12 1c0 .35-.24.73-.78 1.11a2 2 0 00-1 1.46v.36h1.24V9a.76.76 0 01.23-.51A3.92 3.92 0 019.33 8l.17-.14a2 2 0 00.91-1.67 1.85 1.85 0 00-.68-1.44z"/></svg>