<svg xmlns="http://www.w3.org/2000/svg" width="16" height="16" viewBox="0 0 16 16"><path d="M7.41 7.2a1.7 1.7 0 00-1.7-1.7H2.62v5h1.25V8.9h.84a1.59 1.59 0 011.55 1.6h1.25a2.82 2.82 0 00-.77-1.95 1.71 1.71 0 00.67-1.35zm-1.7-.45a.45.45 0 010 .9H3.87v-.9z"/><path d="M8 .5A7.77 7.77 0 000 8a7.77 7.77 0 008 7.5A7.77 7.77 0 0016 8 7.77 7.77 0 008 .5zm0 13.75A6.52 6.52 0 011.25 8 6.52 6.52 0 018 1.75 6.52 6.52 0 0114.75 8 6.52 6.52 0 018 14.25z"/><path d="M13.22 8A1.59 1.59 0 0012 7.38h-2A.34.34 0 019.69 7a.13.13 0 01.01 0 .34.34 0 01.3-.3h1.91a.34.34 0 01.33.28h1.25a1.59 1.59 0 00-1.58-1.53h-.32V4.2h-1.22v1.25H10A1.6 1.6 0 008.44 7a1.55 1.55 0 00.35 1 1.59 1.59 0 001.21.62h2a.34.34 0 01.34.34V9a.33.33 0 01-.33.29h-1.93A.33.33 0 019.75 9H8.49a1.58 1.58 0 001.58 1.54h.3v1.26h1.25v-1.26H12A1.58 1.58 0 0013.56 9a1.51 1.51 0 00-.34-1z"/></svg>