<svg xmlns="http://www.w3.org/2000/svg" width="16" height="16" viewBox="0 0 16 16"><path fill-rule="evenodd" d="M8 4.67a2.14 2.14 0 002.19-2.09A2.14 2.14 0 008 .5a2.14 2.14 0 00-2.24 2.08 1.93 1.93 0 00.22.9L3.3 6.16a2.19 2.19 0 00-1.11-.3A2.14 2.14 0 000 8a2.14 2.14 0 002.19 2 2.14 2.14 0 001-.23l2.77 2.78a2.06 2.06 0 00-.18.83A2.14 2.14 0 008 15.5a2.09 2.09 0 100-4.17 2.25 2.25 0 00-1.18.33L4.09 9a1.77 1.77 0 00.15-.31h7.52A2.19 2.19 0 0013.81 10 2.14 2.14 0 0016 8a2.2 2.2 0 00-4.3-.52H4.3a1.74 1.74 0 00-.14-.38l2.67-2.72A2.33 2.33 0 008 4.67zm0-1.24a.89.89 0 00.94-.85.89.89 0 00-.94-.84.89.89 0 00-1 .84.89.89 0 001 .85zM2.19 8.8a.9.9 0 00.94-.8.9.9 0 00-.94-.84.9.9 0 00-.95.84.91.91 0 00.95.8zM14.76 8a1 1 0 01-1.89 0 1 1 0 011.89 0zm-5.87 5.42a.89.89 0 01-.94.84.85.85 0 110-1.69.89.89 0 01.94.85z"/></svg>