<svg xmlns="http://www.w3.org/2000/svg" width="16" height="16" viewBox="0 0 16 16"><path d="M11.37 9.85l.87-6.4a1.22 1.22 0 00-.3-1A1.24 1.24 0 0011 2H2.85a1.24 1.24 0 00-1.23 1.41l1.15 8.48A1.27 1.27 0 004 13h4.84a4.41 4.41 0 002.66 1h.14a3.9 3.9 0 002.76-1.12zM11 3.25l-.15 1.09H3l-.15-1.09zM7.23 9.72a4.28 4.28 0 00.57 2H4l-.83-6.13h7.47l-.42 3.11-1.87-1.87a3.83 3.83 0 00-1.12 2.89zm4.31 3a3.18 3.18 0 01-2.12-.94 3.21 3.21 0 01-.95-2.13 2.71 2.71 0 01.11-.86l1.91 1.92 1.91 1.91a2.73 2.73 0 01-.76.1z"/></svg>